<?xml version="1.0" encoding="UTF-8" standalone="no"?>
<svg
   xmlns:dc="http://purl.org/dc/elements/1.1/"
   xmlns:cc="http://creativecommons.org/ns#"
   xmlns:rdf="http://www.w3.org/1999/02/22-rdf-syntax-ns#"
   xmlns:svg="http://www.w3.org/2000/svg"
   xmlns="http://www.w3.org/2000/svg"
   xmlns:sodipodi="http://sodipodi.sourceforge.net/DTD/sodipodi-0.dtd"
   xmlns:inkscape="http://www.inkscape.org/namespaces/inkscape"
   width="200mm"
   height="200mm"
   viewBox="0 0 200 200"
   version="1.1"
   id="svg2049"
   sodipodi:docname="petrofit_logo_no_bg.svg"
   inkscape:version="1.0.2 (1.0.2+r75+1)">
  <defs
     id="defs2043" />
  <sodipodi:namedview
     id="base"
     pagecolor="#ffffff"
     bordercolor="#666666"
     borderopacity="1.0"
     inkscape:pageopacity="0.0"
     inkscape:pageshadow="2"
     inkscape:zoom="0.49497475"
     inkscape:cx="-219.77086"
     inkscape:cy="388.39497"
     inkscape:document-units="mm"
     inkscape:current-layer="layer1"
     inkscape:document-rotation="0"
     showgrid="false"
     units="mm"
     inkscape:window-width="1920"
     inkscape:window-height="1015"
     inkscape:window-x="0"
     inkscape:window-y="0"
     inkscape:window-maximized="1" />
  <metadata
     id="metadata2046">
    <rdf:RDF>
      <cc:Work
         rdf:about="">
        <dc:format>image/svg+xml</dc:format>
        <dc:type
           rdf:resource="http://purl.org/dc/dcmitype/StillImage" />
        <dc:title></dc:title>
      </cc:Work>
    </rdf:RDF>
  </metadata>
  <g
     inkscape:label="Layer 1"
     inkscape:groupmode="layer"
     id="layer1">
    <g
       id="g2256">
      <path
         style="fill:#ffffff;fill-opacity:1;stroke:none;stroke-width:0.559526"
         d="m 5.0145015,137.03051 1.169607,4.5141 1.0631479,3.0077 24.0793836,0.0206 c 6.532818,0.005 13.14578,0.2147 19.443217,-2.34732 18.858458,-7.67323 29.979937,-33.20357 35.891185,-55.426317 1.730965,-6.508566 3.350221,-13.264227 3.992404,-20.095195 h 0.498506 c 2.433409,19.561392 8.997738,39.661612 18.682418,55.261762 5.47205,8.81366 12.62268,16.69282 21.20111,20.19126 6.63911,2.70783 13.55539,2.41581 20.44029,2.41581 v 0 l -0.49854,-7.53568 v 0 c 0,0 -13.15659,0.29 -19.44321,-2.93324 -9.61341,-4.929 -16.82786,-15.64536 -22.07055,-26.58154 C 98.122097,83.866063 94.143206,55.034099 94.143206,27.769634 c -1.630725,0.0066 -4.052665,-0.415488 -5.397258,1.021829 -1.149637,1.229228 -1.050898,3.547271 -1.075336,5.26263 -0.05751,4.006921 -0.146658,7.932158 -0.424782,11.926785 -1.35654,19.469574 -5.258134,39.116571 -12.443141,56.517732 -5.622569,13.617 -14.56796,27.72132 -26.525535,32.72125 -5.46256,2.28396 -11.282451,1.81736 -16.950514,1.81736 z"
         id="path1441"
         sodipodi:nodetypes="cccsccccccsccsscccccscsc" />
      <circle
         style="fill:#ffffff;fill-opacity:1;stroke-width:0.648459;stroke-miterlimit:4;stroke-dasharray:none"
         id="path1445"
         cx="25.606533"
         cy="140.58022"
         r="9.1353474" />
      <circle
         style="fill:#ffffff;fill-opacity:1;stroke-width:0.648459;stroke-miterlimit:4;stroke-dasharray:none"
         id="path1445-6-2"
         cx="63.027203"
         cy="129.1069"
         r="9.1353474" />
      <circle
         style="fill:#ffffff;fill-opacity:1;stroke-width:0.648459;stroke-miterlimit:4;stroke-dasharray:none"
         id="path1445-6-2-9-1"
         cx="78.912247"
         cy="99.488091"
         r="9.1353474" />
      <circle
         style="fill:#ffffff;fill-opacity:1;stroke-width:0.648459;stroke-miterlimit:4;stroke-dasharray:none"
         id="path1445-6-2-9-1-2-7"
         cx="90.766403"
         cy="36.197285"
         r="9.1353474" />
      <circle
         style="fill:#ffffff;fill-opacity:1;stroke-width:0.648459;stroke-miterlimit:4;stroke-dasharray:none"
         id="path1445-6-2-9-1-0"
         cx="102.40112"
         cy="99.663696"
         r="9.1353474" />
      <circle
         style="fill:#ffffff;fill-opacity:1;stroke-width:0.648459;stroke-miterlimit:4;stroke-dasharray:none"
         id="path1445-6-2-9"
         cx="119.75079"
         cy="129.12822"
         r="9.1353474" />
      <path
         style="fill:#ffffff;fill-opacity:1;stroke:none;stroke-width:0.0959952"
         d="m 145.63296,130.75762 v 13.34334 4.22378 l 0.0961,2.49588 13.24736,-4.09209 3.55182,-1.09759 1.51913,-0.59461 0.20802,-0.93567 7.3e-4,-2.1116 h 3.55182 c 0.58508,0 1.21904,-0.0742 1.72791,0.27051 1.2463,0.84418 2.29689,2.21855 3.35985,3.28131 0.37389,0.37382 0.88794,1.10731 1.43992,1.20522 0.68982,0.12244 1.66483,-1.06161 1.27116,-1.68519 -0.38724,-0.61341 -1.04874,-1.12152 -1.55914,-1.63193 -0.87578,-0.87576 -1.71823,-1.8189 -2.68787,-2.59186 v -0.0961 c 1.2125,-0.96656 2.2649,-2.16782 3.35983,-3.26384 0.34366,-0.34404 1.10434,-0.88745 1.05662,-1.43992 -0.0504,-0.58326 -0.86405,-1.15124 -1.24861,-1.53593 h -0.0961 l -3.55182,3.55182 -1.8239,1.61507 -1.63193,0.11288 h -3.16784 l -2.9e-4,-2.30366 -0.20851,-1.0092 -1.51911,-0.57963 -3.45583,-1.06903 -8.54358,-2.628 z"
         id="path1885" />
      <path
         style="fill:#ffffff;fill-opacity:1;stroke:none;stroke-width:0.127652"
         d="m 124.58637,44.418357 -1.71065,7.925402 -8.42168,1.609847 v 0.123753 l 8.42168,1.609848 1.71065,7.925385 h 0.1315 l 1.71064,-7.925385 8.42169,-1.609848 v -0.123753 l -8.42169,-1.609847 -0.94576,-4.458036 z"
         id="path1915" />
      <path
         style="fill:#ffffff;fill-opacity:1;stroke:none;stroke-width:0.127652"
         d="m 138.72621,58.813716 -1.71064,7.925385 -8.42169,1.609848 v 0.123753 l 8.42169,1.609847 1.71064,7.925386 h 0.1315 l 1.71065,-7.925386 8.42168,-1.609847 v -0.123753 l -8.42168,-1.609848 -0.94577,-4.458035 z"
         id="path1915-6" />
      <path
         style="fill:#ffffff;fill-opacity:1;stroke:none;stroke-width:0.127652"
         d="m 153.14189,73.24106 -1.71065,7.925401 -8.42168,1.609831 v 0.123754 l 8.42168,1.609847 1.71065,7.925385 h 0.1315 l 1.71064,-7.925385 8.42169,-1.609847 v -0.123754 l -8.42169,-1.609831 -0.94576,-4.458035 z"
         id="path1915-6-1" />
    </g>
  </g>
</svg>
