<svg xmlns="http://www.w3.org/2000/svg" width="180.68" height="180.68" viewBox="0 0 180.68 180.68"><defs><style>.cls-1{fill:#3a8dde;}.cls-2{fill:#fff;}</style></defs><title>Asset 3</title><g id="Layer_2" data-name="Layer 2"><g id="Layer_1-2" data-name="Layer 1"><path class="cls-1" d="M180.68,90.34A90.34,90.34,0,1,1,90.34,0,90.34,90.34,0,0,1,180.68,90.34Z"/><path class="cls-2" d="M90.34,175.65a85.32,85.32,0,1,1,85.32-85.31A85.41,85.41,0,0,1,90.34,175.65Zm0-168.12a82.81,82.81,0,1,0,82.81,82.81A82.91,82.91,0,0,0,90.34,7.53Z"/><path class="cls-2" d="M130.58,57.58a40.26,40.26,0,0,0-80.49,0h-3.9v89.93h88.3V57.58ZM90.34,21a37.75,37.75,0,0,1,22,68.43l-3.15-32.53h0a19,19,0,0,0-37.81,0h0L68.28,89.47A37.76,37.76,0,0,1,90.34,21Zm0,114.49L87.79,124c.84,0,1.69-.09,2.55-.09s1.7,0,2.54.09Zm5.06-11.35A42,42,0,0,1,126.91,145H90.82ZM89.85,145H53.76a42,42,0,0,1,31.51-20.82Zm.49-23.65c-1,0-2.07,0-3.1.11L86.47,118a23.18,23.18,0,0,0,3.8.32h.07A23.89,23.89,0,0,0,94.2,118l-.77,3.51C92.41,121.39,91.38,121.35,90.34,121.35Zm0-5.57h-.06a19.92,19.92,0,0,1-4.4-.54L82.15,98.31a40.35,40.35,0,0,0,16.38,0l-3.72,16.91A20.57,20.57,0,0,1,90.33,115.78ZM72.89,67.91l2.28,10.37a23.38,23.38,0,0,0-3.7,4.25Zm3.37,3.64a19.39,19.39,0,0,0,3.84,3.27,22.78,22.78,0,0,0-2.75,1.69Zm6.56,4.73a18.88,18.88,0,0,0,15,0,20.12,20.12,0,0,1,4.88,2.92l-3.6,16.36a36.35,36.35,0,0,1-17.59,0l-3.6-16.38A19.8,19.8,0,0,1,82.82,76.28Zm26.38,6.24a23.27,23.27,0,0,0-3.7-4.24l2.28-10.37Zm-5.88-6a22.56,22.56,0,0,0-2.75-1.7,18.23,18.23,0,0,0,3.84-3.27Zm1.54,4.68a19.64,19.64,0,0,1,5.1,9.89,37.78,37.78,0,0,1-8.1,3.75Zm2-22.35A16.49,16.49,0,1,1,90.34,42.35,16.5,16.5,0,0,1,106.82,58.84Zm-31,22.31,3,13.68a37.48,37.48,0,0,1-8.09-3.75A19.42,19.42,0,0,1,75.8,81.15ZM79.42,97.6l3.7,16.81a19.72,19.72,0,0,1-10.19-9L64,89.27A40.18,40.18,0,0,0,79.42,97.6Zm21.83,0a40.22,40.22,0,0,0,15.44-8.33l-9,16.17a19.68,19.68,0,0,1-10.17,8.94ZM48.7,60.09h1.39a40.08,40.08,0,0,0,5.19,18.58h0l15.46,27.91a22.21,22.21,0,0,0,13.05,10.73l1,4.4A44.54,44.54,0,0,0,50.89,145H48.7ZM132,145h-2.19a44.55,44.55,0,0,0-33.85-23.28l1-4.42a22.27,22.27,0,0,0,13-10.67l15.47-27.95h0a39.84,39.84,0,0,0,5.19-18.58H132Z"/></g></g></svg>